<svg xmlns="http://www.w3.org/2000/svg" viewBox="0 0 48 48">
  <rect width="48" height="48" rx="10" fill="white"/>
  <rect x="1" y="1" width="46" height="46" rx="9" fill="none" stroke="#e0e0e0" stroke-width="2"/>
  <path d="M31.2 24.5c0-.8-.1-1.5-.2-2.2H24v4.2h4c-.2 1-.7 1.8-1.5 2.4v2h2.4c1.4-1.3 2.3-3.2 2.3-6.4z" fill="#4285F4"/>
  <path d="M24 32c2 0 3.7-.7 5-1.8l-2.4-2c-.7.5-1.5.7-2.5.7-2 0-3.6-1.3-4.2-3.1h-2.5v2c1.2 2.5 3.8 4.2 6.7 4.2z" fill="#34A853"/>
  <path d="M19.8 25.8c-.2-.5-.2-1-.2-1.5s.1-1 .2-1.5v-2h-2.5c-.5 1-.8 2.2-.8 3.5s.3 2.5.8 3.5l2.5-2z" fill="#FBBC05"/>
  <path d="M24 19.2c1.1 0 2.1.4 2.9 1.1l2.2-2.2C27.7 16.8 26 16 24 16c-2.9 0-5.5 1.7-6.7 4.2l2.5 2c.6-1.8 2.2-3 4.2-3z" fill="#EA4335"/>
</svg>

