<svg xmlns="http://www.w3.org/2000/svg" viewBox="0 0 48 48">
  <!-- Paytm dark blue background -->
  <rect width="48" height="48" rx="12" fill="#172b4d"/>
  <!-- Paytm text logo -->
  <g fill="#00b9f5">
    <!-- P -->
    <path d="M8 32 V16 h4 c3 0 5 2 5 4 s-2 4-5 4 h-2 v8 h-2 z M10 18 v4 h2 c2 0 3-1 3-2 s-1-2-3-2 h-2 z"/>
    <!-- a -->
    <path d="M18 24 c0-2 2-3 4-3 s4 1 4 3 v5 c0 1 0 2 1 2 h-2 c0 0-1-1-1-1 c-1 1-2 1-3 1 c-2 0-3-1-3-2 c0-2 2-3 4-3 h2 v-1 c0-1-1-2-2-2 s-2 1-2 2 h-2 z M22 27 h-2 c-1 0-2 0-2 1 s1 1 2 1 c1 0 2-1 2-2 z"/>
    <!-- y -->
    <path d="M28 21 l2 6 l2-6 h2 l-4 10 c-1 2-2 3-3 3 h-1 v-2 h1 c1 0 1 0 2-1 l-3-10 h2 z"/>
  </g>
  <!-- tm in lighter style -->
  <g fill="#00d9ff">
    <!-- t -->
    <path d="M35 19 v-2 h2 v2 h2 v2 h-2 v4 c0 1 0 1 1 1 h1 v2 h-2 c-1 0-2-1-2-2 v-5 h-1 v-2 h1 z"/>
    <!-- m -->
    <path d="M40 21 v8 h-2 v-6 c0-1-1-1-1-1 s-1 0-1 1 v6 h-1 v-8 h1 v1 c0-1 1-1 2-1 s2 1 2 2 z"/>
  </g>
</svg>
